<svg xmlns="http://www.w3.org/2000/svg" xmlns:xlink="http://www.w3.org/1999/xlink" viewBox="0 0 640 640" width="640" height="640" role="img" aria-label="Bridgestone Duravis R660 205/65 R16">
  <defs>
    <linearGradient id="bg" x1="0" y1="0" x2="0" y2="1">
      <stop offset="0" stop-color="#fff7ed"/><stop offset="1" stop-color="#fbdca6"/>
    </linearGradient>
    <radialGradient id="vig" cx="50%" cy="42%" r="62%">
      <stop offset="0" stop-color="#ffffff" stop-opacity="0.65"/>
      <stop offset="0.6" stop-color="#ffffff" stop-opacity="0.10"/>
      <stop offset="1" stop-color="#ffffff" stop-opacity="0"/>
    </radialGradient>
    <radialGradient id="rubber" cx="38%" cy="30%" r="78%">
      <stop offset="0" stop-color="#454d57"/><stop offset="0.42" stop-color="#252b32"/>
      <stop offset="0.8" stop-color="#12161b"/><stop offset="1" stop-color="#080a0d"/>
    </radialGradient>
    <radialGradient id="alloy" cx="40%" cy="33%" r="80%">
      <stop offset="0" stop-color="#f6f9fc"/><stop offset="0.4" stop-color="#d2dbe3"/>
      <stop offset="0.72" stop-color="#9aa6b3"/><stop offset="1" stop-color="#66717d"/>
    </radialGradient>
    <radialGradient id="cap" cx="40%" cy="34%" r="80%">
      <stop offset="0" stop-color="#fbbf24"/><stop offset="1" stop-color="#f59e0b"/>
    </radialGradient>
    <radialGradient id="hub" cx="42%" cy="36%" r="75%">
      <stop offset="0" stop-color="#eef2f6"/><stop offset="0.7" stop-color="#b7c1cc"/><stop offset="1" stop-color="#7d8894"/>
    </radialGradient>
    <filter id="soft" x="-30%" y="-30%" width="160%" height="160%"><feGaussianBlur stdDeviation="9"/></filter>
    <filter id="gloss" x="-40%" y="-40%" width="180%" height="180%"><feGaussianBlur stdDeviation="16"/></filter>
  </defs>

  <rect width="640" height="640" fill="url(#bg)"/>
  <rect width="640" height="640" fill="url(#vig)"/>

  <!-- pol soyasi -->
  <ellipse cx="320" cy="566" rx="224" ry="34" fill="#0f172a" opacity="0.20" filter="url(#soft)"/>
  <!-- mavsum nur halosi -->
  <circle cx="320" cy="312" r="262" fill="#fbbf24" opacity="0.16" filter="url(#gloss)"/>

  <g transform="translate(0 -8)">
    <!-- rezina (tashqi protektor) -->
    <circle cx="320" cy="320" r="252" fill="#05070a"/>
    <circle cx="320" cy="320" r="250" fill="url(#rubber)"/>
    <circle cx="320" cy="320" r="250" fill="none" stroke="#f59e0b" stroke-width="3" opacity="0.85"/>

    <!-- protektor lug'lari + ariqlar -->
    <rect x="312.5" y="72" width="15" height="34" rx="3" fill="#3a424c" opacity="0.55" transform="rotate(0 320 320)"/><rect x="312.5" y="72" width="15" height="34" rx="3" fill="#3a424c" opacity="0.55" transform="rotate(8.18 320 320)"/><rect x="312.5" y="72" width="15" height="34" rx="3" fill="#3a424c" opacity="0.55" transform="rotate(16.36 320 320)"/><rect x="312.5" y="72" width="15" height="34" rx="3" fill="#3a424c" opacity="0.55" transform="rotate(24.55 320 320)"/><rect x="312.5" y="72" width="15" height="34" rx="3" fill="#3a424c" opacity="0.55" transform="rotate(32.73 320 320)"/><rect x="312.5" y="72" width="15" height="34" rx="3" fill="#3a424c" opacity="0.55" transform="rotate(40.91 320 320)"/><rect x="312.5" y="72" width="15" height="34" rx="3" fill="#3a424c" opacity="0.55" transform="rotate(49.09 320 320)"/><rect x="312.5" y="72" width="15" height="34" rx="3" fill="#3a424c" opacity="0.55" transform="rotate(57.27 320 320)"/><rect x="312.5" y="72" width="15" height="34" rx="3" fill="#3a424c" opacity="0.55" transform="rotate(65.45 320 320)"/><rect x="312.5" y="72" width="15" height="34" rx="3" fill="#3a424c" opacity="0.55" transform="rotate(73.64 320 320)"/><rect x="312.5" y="72" width="15" height="34" rx="3" fill="#3a424c" opacity="0.55" transform="rotate(81.82 320 320)"/><rect x="312.5" y="72" width="15" height="34" rx="3" fill="#3a424c" opacity="0.55" transform="rotate(90 320 320)"/><rect x="312.5" y="72" width="15" height="34" rx="3" fill="#3a424c" opacity="0.55" transform="rotate(98.18 320 320)"/><rect x="312.5" y="72" width="15" height="34" rx="3" fill="#3a424c" opacity="0.55" transform="rotate(106.36 320 320)"/><rect x="312.5" y="72" width="15" height="34" rx="3" fill="#3a424c" opacity="0.55" transform="rotate(114.55 320 320)"/><rect x="312.5" y="72" width="15" height="34" rx="3" fill="#3a424c" opacity="0.55" transform="rotate(122.73 320 320)"/><rect x="312.5" y="72" width="15" height="34" rx="3" fill="#3a424c" opacity="0.55" transform="rotate(130.91 320 320)"/><rect x="312.5" y="72" width="15" height="34" rx="3" fill="#3a424c" opacity="0.55" transform="rotate(139.09 320 320)"/><rect x="312.5" y="72" width="15" height="34" rx="3" fill="#3a424c" opacity="0.55" transform="rotate(147.27 320 320)"/><rect x="312.5" y="72" width="15" height="34" rx="3" fill="#3a424c" opacity="0.55" transform="rotate(155.45 320 320)"/><rect x="312.5" y="72" width="15" height="34" rx="3" fill="#3a424c" opacity="0.55" transform="rotate(163.64 320 320)"/><rect x="312.5" y="72" width="15" height="34" rx="3" fill="#3a424c" opacity="0.55" transform="rotate(171.82 320 320)"/><rect x="312.5" y="72" width="15" height="34" rx="3" fill="#3a424c" opacity="0.55" transform="rotate(180 320 320)"/><rect x="312.5" y="72" width="15" height="34" rx="3" fill="#3a424c" opacity="0.55" transform="rotate(188.18 320 320)"/><rect x="312.5" y="72" width="15" height="34" rx="3" fill="#3a424c" opacity="0.55" transform="rotate(196.36 320 320)"/><rect x="312.5" y="72" width="15" height="34" rx="3" fill="#3a424c" opacity="0.55" transform="rotate(204.55 320 320)"/><rect x="312.5" y="72" width="15" height="34" rx="3" fill="#3a424c" opacity="0.55" transform="rotate(212.73 320 320)"/><rect x="312.5" y="72" width="15" height="34" rx="3" fill="#3a424c" opacity="0.55" transform="rotate(220.91 320 320)"/><rect x="312.5" y="72" width="15" height="34" rx="3" fill="#3a424c" opacity="0.55" transform="rotate(229.09 320 320)"/><rect x="312.5" y="72" width="15" height="34" rx="3" fill="#3a424c" opacity="0.55" transform="rotate(237.27 320 320)"/><rect x="312.5" y="72" width="15" height="34" rx="3" fill="#3a424c" opacity="0.55" transform="rotate(245.45 320 320)"/><rect x="312.5" y="72" width="15" height="34" rx="3" fill="#3a424c" opacity="0.55" transform="rotate(253.64 320 320)"/><rect x="312.5" y="72" width="15" height="34" rx="3" fill="#3a424c" opacity="0.55" transform="rotate(261.82 320 320)"/><rect x="312.5" y="72" width="15" height="34" rx="3" fill="#3a424c" opacity="0.55" transform="rotate(270 320 320)"/><rect x="312.5" y="72" width="15" height="34" rx="3" fill="#3a424c" opacity="0.55" transform="rotate(278.18 320 320)"/><rect x="312.5" y="72" width="15" height="34" rx="3" fill="#3a424c" opacity="0.55" transform="rotate(286.36 320 320)"/><rect x="312.5" y="72" width="15" height="34" rx="3" fill="#3a424c" opacity="0.55" transform="rotate(294.55 320 320)"/><rect x="312.5" y="72" width="15" height="34" rx="3" fill="#3a424c" opacity="0.55" transform="rotate(302.73 320 320)"/><rect x="312.5" y="72" width="15" height="34" rx="3" fill="#3a424c" opacity="0.55" transform="rotate(310.91 320 320)"/><rect x="312.5" y="72" width="15" height="34" rx="3" fill="#3a424c" opacity="0.55" transform="rotate(319.09 320 320)"/><rect x="312.5" y="72" width="15" height="34" rx="3" fill="#3a424c" opacity="0.55" transform="rotate(327.27 320 320)"/><rect x="312.5" y="72" width="15" height="34" rx="3" fill="#3a424c" opacity="0.55" transform="rotate(335.45 320 320)"/><rect x="312.5" y="72" width="15" height="34" rx="3" fill="#3a424c" opacity="0.55" transform="rotate(343.64 320 320)"/><rect x="312.5" y="72" width="15" height="34" rx="3" fill="#3a424c" opacity="0.55" transform="rotate(351.82 320 320)"/>
    <rect x="315.5" y="74" width="9" height="12" rx="2" fill="#0b0e12" opacity="0.7" transform="rotate(0 320 320)"/><rect x="315.5" y="74" width="9" height="12" rx="2" fill="#0b0e12" opacity="0.7" transform="rotate(8.18 320 320)"/><rect x="315.5" y="74" width="9" height="12" rx="2" fill="#0b0e12" opacity="0.7" transform="rotate(16.36 320 320)"/><rect x="315.5" y="74" width="9" height="12" rx="2" fill="#0b0e12" opacity="0.7" transform="rotate(24.55 320 320)"/><rect x="315.5" y="74" width="9" height="12" rx="2" fill="#0b0e12" opacity="0.7" transform="rotate(32.73 320 320)"/><rect x="315.5" y="74" width="9" height="12" rx="2" fill="#0b0e12" opacity="0.7" transform="rotate(40.91 320 320)"/><rect x="315.5" y="74" width="9" height="12" rx="2" fill="#0b0e12" opacity="0.7" transform="rotate(49.09 320 320)"/><rect x="315.5" y="74" width="9" height="12" rx="2" fill="#0b0e12" opacity="0.7" transform="rotate(57.27 320 320)"/><rect x="315.5" y="74" width="9" height="12" rx="2" fill="#0b0e12" opacity="0.7" transform="rotate(65.45 320 320)"/><rect x="315.5" y="74" width="9" height="12" rx="2" fill="#0b0e12" opacity="0.7" transform="rotate(73.64 320 320)"/><rect x="315.5" y="74" width="9" height="12" rx="2" fill="#0b0e12" opacity="0.7" transform="rotate(81.82 320 320)"/><rect x="315.5" y="74" width="9" height="12" rx="2" fill="#0b0e12" opacity="0.7" transform="rotate(90 320 320)"/><rect x="315.5" y="74" width="9" height="12" rx="2" fill="#0b0e12" opacity="0.7" transform="rotate(98.18 320 320)"/><rect x="315.5" y="74" width="9" height="12" rx="2" fill="#0b0e12" opacity="0.7" transform="rotate(106.36 320 320)"/><rect x="315.5" y="74" width="9" height="12" rx="2" fill="#0b0e12" opacity="0.7" transform="rotate(114.55 320 320)"/><rect x="315.5" y="74" width="9" height="12" rx="2" fill="#0b0e12" opacity="0.7" transform="rotate(122.73 320 320)"/><rect x="315.5" y="74" width="9" height="12" rx="2" fill="#0b0e12" opacity="0.7" transform="rotate(130.91 320 320)"/><rect x="315.5" y="74" width="9" height="12" rx="2" fill="#0b0e12" opacity="0.7" transform="rotate(139.09 320 320)"/><rect x="315.5" y="74" width="9" height="12" rx="2" fill="#0b0e12" opacity="0.7" transform="rotate(147.27 320 320)"/><rect x="315.5" y="74" width="9" height="12" rx="2" fill="#0b0e12" opacity="0.7" transform="rotate(155.45 320 320)"/><rect x="315.5" y="74" width="9" height="12" rx="2" fill="#0b0e12" opacity="0.7" transform="rotate(163.64 320 320)"/><rect x="315.5" y="74" width="9" height="12" rx="2" fill="#0b0e12" opacity="0.7" transform="rotate(171.82 320 320)"/><rect x="315.5" y="74" width="9" height="12" rx="2" fill="#0b0e12" opacity="0.7" transform="rotate(180 320 320)"/><rect x="315.5" y="74" width="9" height="12" rx="2" fill="#0b0e12" opacity="0.7" transform="rotate(188.18 320 320)"/><rect x="315.5" y="74" width="9" height="12" rx="2" fill="#0b0e12" opacity="0.7" transform="rotate(196.36 320 320)"/><rect x="315.5" y="74" width="9" height="12" rx="2" fill="#0b0e12" opacity="0.7" transform="rotate(204.55 320 320)"/><rect x="315.5" y="74" width="9" height="12" rx="2" fill="#0b0e12" opacity="0.7" transform="rotate(212.73 320 320)"/><rect x="315.5" y="74" width="9" height="12" rx="2" fill="#0b0e12" opacity="0.7" transform="rotate(220.91 320 320)"/><rect x="315.5" y="74" width="9" height="12" rx="2" fill="#0b0e12" opacity="0.7" transform="rotate(229.09 320 320)"/><rect x="315.5" y="74" width="9" height="12" rx="2" fill="#0b0e12" opacity="0.7" transform="rotate(237.27 320 320)"/><rect x="315.5" y="74" width="9" height="12" rx="2" fill="#0b0e12" opacity="0.7" transform="rotate(245.45 320 320)"/><rect x="315.5" y="74" width="9" height="12" rx="2" fill="#0b0e12" opacity="0.7" transform="rotate(253.64 320 320)"/><rect x="315.5" y="74" width="9" height="12" rx="2" fill="#0b0e12" opacity="0.7" transform="rotate(261.82 320 320)"/><rect x="315.5" y="74" width="9" height="12" rx="2" fill="#0b0e12" opacity="0.7" transform="rotate(270 320 320)"/><rect x="315.5" y="74" width="9" height="12" rx="2" fill="#0b0e12" opacity="0.7" transform="rotate(278.18 320 320)"/><rect x="315.5" y="74" width="9" height="12" rx="2" fill="#0b0e12" opacity="0.7" transform="rotate(286.36 320 320)"/><rect x="315.5" y="74" width="9" height="12" rx="2" fill="#0b0e12" opacity="0.7" transform="rotate(294.55 320 320)"/><rect x="315.5" y="74" width="9" height="12" rx="2" fill="#0b0e12" opacity="0.7" transform="rotate(302.73 320 320)"/><rect x="315.5" y="74" width="9" height="12" rx="2" fill="#0b0e12" opacity="0.7" transform="rotate(310.91 320 320)"/><rect x="315.5" y="74" width="9" height="12" rx="2" fill="#0b0e12" opacity="0.7" transform="rotate(319.09 320 320)"/><rect x="315.5" y="74" width="9" height="12" rx="2" fill="#0b0e12" opacity="0.7" transform="rotate(327.27 320 320)"/><rect x="315.5" y="74" width="9" height="12" rx="2" fill="#0b0e12" opacity="0.7" transform="rotate(335.45 320 320)"/><rect x="315.5" y="74" width="9" height="12" rx="2" fill="#0b0e12" opacity="0.7" transform="rotate(343.64 320 320)"/><rect x="315.5" y="74" width="9" height="12" rx="2" fill="#0b0e12" opacity="0.7" transform="rotate(351.82 320 320)"/>
    <circle cx="320" cy="320" r="214" fill="none" stroke="#05070a" stroke-width="6" opacity="0.8"/>
    <circle cx="320" cy="320" r="238" fill="none" stroke="#05070a" stroke-width="3" opacity="0.6"/>

    <!-- sidewall matni (brend + o'lcham) -->
    <path id="ta_BRDDR6602056516" d="M 151.91 245.16 A 184 184 0 0 1 488.09 245.16" fill="none"/>
    <path id="ba_BRDDR6602056516" d="M 181.31 428.36 A 176 176 0 0 0 458.69 428.36" fill="none"/>
    <text font-family="Arial, Helvetica, sans-serif" font-size="23" font-weight="700" letter-spacing="3" fill="#0a0d11" opacity="0.6">
      <textPath href="#ta_BRDDR6602056516" xlink:href="#ta_BRDDR6602056516" startOffset="50%" text-anchor="middle" dy="1.5">BRIDGESTONE DURAVIS R660</textPath>
    </text>
    <text font-family="Arial, Helvetica, sans-serif" font-size="23" font-weight="700" letter-spacing="3" fill="#eef2f6">
      <textPath href="#ta_BRDDR6602056516" xlink:href="#ta_BRDDR6602056516" startOffset="50%" text-anchor="middle">BRIDGESTONE DURAVIS R660</textPath>
    </text>
    <text font-family="Arial, Helvetica, sans-serif" font-size="20" font-weight="600" letter-spacing="2" fill="#c7d0d9">
      <textPath href="#ba_BRDDR6602056516" xlink:href="#ba_BRDDR6602056516" startOffset="50%" text-anchor="middle">205/65 R16  ·  107T</textPath>
    </text>

    <!-- disk (alloy) -->
    <circle cx="320" cy="320" r="152" fill="#05070a"/>
    <circle cx="320" cy="320" r="150" fill="url(#alloy)"/>
    <circle cx="320" cy="320" r="150" fill="none" stroke="#5a6570" stroke-width="2"/>
    <!-- pockets (spitsalar orasi) -->
    <rect x="303" y="176" width="34" height="78" rx="16" fill="#161b21" transform="rotate(30 320 320)"/><rect x="303" y="176" width="34" height="78" rx="16" fill="#161b21" transform="rotate(90 320 320)"/><rect x="303" y="176" width="34" height="78" rx="16" fill="#161b21" transform="rotate(150 320 320)"/><rect x="303" y="176" width="34" height="78" rx="16" fill="#161b21" transform="rotate(210 320 320)"/><rect x="303" y="176" width="34" height="78" rx="16" fill="#161b21" transform="rotate(270 320 320)"/><rect x="303" y="176" width="34" height="78" rx="16" fill="#161b21" transform="rotate(330 320 320)"/>
    <rect x="303" y="176" width="34" height="78" rx="16" fill="none" stroke="#ffffff" stroke-width="1" opacity="0.12" transform="rotate(30 320 320)"/><rect x="303" y="176" width="34" height="78" rx="16" fill="none" stroke="#ffffff" stroke-width="1" opacity="0.12" transform="rotate(90 320 320)"/><rect x="303" y="176" width="34" height="78" rx="16" fill="none" stroke="#ffffff" stroke-width="1" opacity="0.12" transform="rotate(150 320 320)"/><rect x="303" y="176" width="34" height="78" rx="16" fill="none" stroke="#ffffff" stroke-width="1" opacity="0.12" transform="rotate(210 320 320)"/><rect x="303" y="176" width="34" height="78" rx="16" fill="none" stroke="#ffffff" stroke-width="1" opacity="0.12" transform="rotate(270 320 320)"/><rect x="303" y="176" width="34" height="78" rx="16" fill="none" stroke="#ffffff" stroke-width="1" opacity="0.12" transform="rotate(330 320 320)"/>
    <!-- stupitsa -->
    <circle cx="320" cy="320" r="66" fill="url(#hub)" stroke="#5a6570" stroke-width="2"/>
    <circle cx="347.04" cy="282.79" r="6.5" fill="#2b333c" stroke="#7d8894" stroke-width="1.2"/><circle cx="345.54" cy="281.29" r="2" fill="#aeb8c2"/><circle cx="365.75" cy="324.81" r="6.5" fill="#2b333c" stroke="#7d8894" stroke-width="1.2"/><circle cx="364.25" cy="323.31" r="2" fill="#aeb8c2"/><circle cx="338.71" cy="362.02" r="6.5" fill="#2b333c" stroke="#7d8894" stroke-width="1.2"/><circle cx="337.21" cy="360.52" r="2" fill="#aeb8c2"/><circle cx="292.96" cy="357.21" r="6.5" fill="#2b333c" stroke="#7d8894" stroke-width="1.2"/><circle cx="291.46" cy="355.71" r="2" fill="#aeb8c2"/><circle cx="274.25" cy="315.19" r="6.5" fill="#2b333c" stroke="#7d8894" stroke-width="1.2"/><circle cx="272.75" cy="313.69" r="2" fill="#aeb8c2"/><circle cx="301.29" cy="277.98" r="6.5" fill="#2b333c" stroke="#7d8894" stroke-width="1.2"/><circle cx="299.79" cy="276.48" r="2" fill="#aeb8c2"/>
    <!-- markaziy qopqoq (brend belgisi) -->
    <circle cx="320" cy="320" r="34" fill="url(#cap)" stroke="#ffffff" stroke-opacity="0.35" stroke-width="2"/>
    <text x="320" y="320" font-family="Arial, Helvetica, sans-serif" font-size="34" font-weight="800" fill="#ffffff" text-anchor="middle" dominant-baseline="central">B</text>

    <!-- yaltiroq (gloss) -->
    <ellipse cx="238" cy="212" rx="120" ry="70" fill="#ffffff" opacity="0.10" filter="url(#gloss)"/>
  </g>

  <!-- mavsum badge -->
  <g transform="translate(0 0)">
    <rect x="260.25" y="30" width="119.5" height="40" rx="20" fill="#f59e0b"/>
    <rect x="260.25" y="30" width="119.5" height="40" rx="20" fill="#ffffff" opacity="0.10"/>
    <g transform="translate(286.25 50)"><g><line x1="0" y1="-8" x2="0" y2="-12" stroke="#fff" stroke-width="2.2" stroke-linecap="round"/><line x1="5.66" y1="-5.66" x2="8.49" y2="-8.49" stroke="#fff" stroke-width="2.2" stroke-linecap="round"/><line x1="8" y1="0" x2="12" y2="0" stroke="#fff" stroke-width="2.2" stroke-linecap="round"/><line x1="5.66" y1="5.66" x2="8.49" y2="8.49" stroke="#fff" stroke-width="2.2" stroke-linecap="round"/><line x1="0" y1="8" x2="0" y2="12" stroke="#fff" stroke-width="2.2" stroke-linecap="round"/><line x1="-5.66" y1="5.66" x2="-8.49" y2="8.49" stroke="#fff" stroke-width="2.2" stroke-linecap="round"/><line x1="-8" y1="0" x2="-12" y2="0" stroke="#fff" stroke-width="2.2" stroke-linecap="round"/><line x1="-5.66" y1="-5.66" x2="-8.49" y2="-8.49" stroke="#fff" stroke-width="2.2" stroke-linecap="round"/><circle r="5.2" fill="#fff"/></g></g>
    <text x="308.25" y="50" font-family="Arial, Helvetica, sans-serif" font-size="17" font-weight="700" letter-spacing="1" fill="#ffffff" dominant-baseline="central">YOZGI</text>
  </g>
</svg>