<svg xmlns="http://www.w3.org/2000/svg" xmlns:xlink="http://www.w3.org/1999/xlink" viewBox="0 0 640 640" width="640" height="640" role="img" aria-label="Nokian Outpost AT 265/65 R17">
  <defs>
    <linearGradient id="bg" x1="0" y1="0" x2="0" y2="1">
      <stop offset="0" stop-color="#e9fbf1"/><stop offset="1" stop-color="#a7e8c4"/>
    </linearGradient>
    <radialGradient id="vig" cx="50%" cy="42%" r="62%">
      <stop offset="0" stop-color="#ffffff" stop-opacity="0.65"/>
      <stop offset="0.6" stop-color="#ffffff" stop-opacity="0.10"/>
      <stop offset="1" stop-color="#ffffff" stop-opacity="0"/>
    </radialGradient>
    <radialGradient id="rubber" cx="38%" cy="30%" r="78%">
      <stop offset="0" stop-color="#454d57"/><stop offset="0.42" stop-color="#252b32"/>
      <stop offset="0.8" stop-color="#12161b"/><stop offset="1" stop-color="#080a0d"/>
    </radialGradient>
    <radialGradient id="alloy" cx="40%" cy="33%" r="80%">
      <stop offset="0" stop-color="#f6f9fc"/><stop offset="0.4" stop-color="#d2dbe3"/>
      <stop offset="0.72" stop-color="#9aa6b3"/><stop offset="1" stop-color="#66717d"/>
    </radialGradient>
    <radialGradient id="cap" cx="40%" cy="34%" r="80%">
      <stop offset="0" stop-color="#34d399"/><stop offset="1" stop-color="#10b981"/>
    </radialGradient>
    <radialGradient id="hub" cx="42%" cy="36%" r="75%">
      <stop offset="0" stop-color="#eef2f6"/><stop offset="0.7" stop-color="#b7c1cc"/><stop offset="1" stop-color="#7d8894"/>
    </radialGradient>
    <filter id="soft" x="-30%" y="-30%" width="160%" height="160%"><feGaussianBlur stdDeviation="9"/></filter>
    <filter id="gloss" x="-40%" y="-40%" width="180%" height="180%"><feGaussianBlur stdDeviation="16"/></filter>
  </defs>

  <rect width="640" height="640" fill="url(#bg)"/>
  <rect width="640" height="640" fill="url(#vig)"/>

  <!-- pol soyasi -->
  <ellipse cx="320" cy="566" rx="224" ry="34" fill="#0f172a" opacity="0.20" filter="url(#soft)"/>
  <!-- mavsum nur halosi -->
  <circle cx="320" cy="312" r="262" fill="#34d399" opacity="0.16" filter="url(#gloss)"/>

  <g transform="translate(0 -8)">
    <!-- rezina (tashqi protektor) -->
    <circle cx="320" cy="320" r="252" fill="#05070a"/>
    <circle cx="320" cy="320" r="250" fill="url(#rubber)"/>
    <circle cx="320" cy="320" r="250" fill="none" stroke="#10b981" stroke-width="3" opacity="0.85"/>

    <!-- protektor lug'lari + ariqlar -->
    <rect x="312.5" y="72" width="15" height="34" rx="3" fill="#3a424c" opacity="0.55" transform="rotate(0 320 320)"/><rect x="312.5" y="72" width="15" height="34" rx="3" fill="#3a424c" opacity="0.55" transform="rotate(7.5 320 320)"/><rect x="312.5" y="72" width="15" height="34" rx="3" fill="#3a424c" opacity="0.55" transform="rotate(15 320 320)"/><rect x="312.5" y="72" width="15" height="34" rx="3" fill="#3a424c" opacity="0.55" transform="rotate(22.5 320 320)"/><rect x="312.5" y="72" width="15" height="34" rx="3" fill="#3a424c" opacity="0.55" transform="rotate(30 320 320)"/><rect x="312.5" y="72" width="15" height="34" rx="3" fill="#3a424c" opacity="0.55" transform="rotate(37.5 320 320)"/><rect x="312.5" y="72" width="15" height="34" rx="3" fill="#3a424c" opacity="0.55" transform="rotate(45 320 320)"/><rect x="312.5" y="72" width="15" height="34" rx="3" fill="#3a424c" opacity="0.55" transform="rotate(52.5 320 320)"/><rect x="312.5" y="72" width="15" height="34" rx="3" fill="#3a424c" opacity="0.55" transform="rotate(60 320 320)"/><rect x="312.5" y="72" width="15" height="34" rx="3" fill="#3a424c" opacity="0.55" transform="rotate(67.5 320 320)"/><rect x="312.5" y="72" width="15" height="34" rx="3" fill="#3a424c" opacity="0.55" transform="rotate(75 320 320)"/><rect x="312.5" y="72" width="15" height="34" rx="3" fill="#3a424c" opacity="0.55" transform="rotate(82.5 320 320)"/><rect x="312.5" y="72" width="15" height="34" rx="3" fill="#3a424c" opacity="0.55" transform="rotate(90 320 320)"/><rect x="312.5" y="72" width="15" height="34" rx="3" fill="#3a424c" opacity="0.55" transform="rotate(97.5 320 320)"/><rect x="312.5" y="72" width="15" height="34" rx="3" fill="#3a424c" opacity="0.55" transform="rotate(105 320 320)"/><rect x="312.5" y="72" width="15" height="34" rx="3" fill="#3a424c" opacity="0.55" transform="rotate(112.5 320 320)"/><rect x="312.5" y="72" width="15" height="34" rx="3" fill="#3a424c" opacity="0.55" transform="rotate(120 320 320)"/><rect x="312.5" y="72" width="15" height="34" rx="3" fill="#3a424c" opacity="0.55" transform="rotate(127.5 320 320)"/><rect x="312.5" y="72" width="15" height="34" rx="3" fill="#3a424c" opacity="0.55" transform="rotate(135 320 320)"/><rect x="312.5" y="72" width="15" height="34" rx="3" fill="#3a424c" opacity="0.55" transform="rotate(142.5 320 320)"/><rect x="312.5" y="72" width="15" height="34" rx="3" fill="#3a424c" opacity="0.55" transform="rotate(150 320 320)"/><rect x="312.5" y="72" width="15" height="34" rx="3" fill="#3a424c" opacity="0.55" transform="rotate(157.5 320 320)"/><rect x="312.5" y="72" width="15" height="34" rx="3" fill="#3a424c" opacity="0.55" transform="rotate(165 320 320)"/><rect x="312.5" y="72" width="15" height="34" rx="3" fill="#3a424c" opacity="0.55" transform="rotate(172.5 320 320)"/><rect x="312.5" y="72" width="15" height="34" rx="3" fill="#3a424c" opacity="0.55" transform="rotate(180 320 320)"/><rect x="312.5" y="72" width="15" height="34" rx="3" fill="#3a424c" opacity="0.55" transform="rotate(187.5 320 320)"/><rect x="312.5" y="72" width="15" height="34" rx="3" fill="#3a424c" opacity="0.55" transform="rotate(195 320 320)"/><rect x="312.5" y="72" width="15" height="34" rx="3" fill="#3a424c" opacity="0.55" transform="rotate(202.5 320 320)"/><rect x="312.5" y="72" width="15" height="34" rx="3" fill="#3a424c" opacity="0.55" transform="rotate(210 320 320)"/><rect x="312.5" y="72" width="15" height="34" rx="3" fill="#3a424c" opacity="0.55" transform="rotate(217.5 320 320)"/><rect x="312.5" y="72" width="15" height="34" rx="3" fill="#3a424c" opacity="0.55" transform="rotate(225 320 320)"/><rect x="312.5" y="72" width="15" height="34" rx="3" fill="#3a424c" opacity="0.55" transform="rotate(232.5 320 320)"/><rect x="312.5" y="72" width="15" height="34" rx="3" fill="#3a424c" opacity="0.55" transform="rotate(240 320 320)"/><rect x="312.5" y="72" width="15" height="34" rx="3" fill="#3a424c" opacity="0.55" transform="rotate(247.5 320 320)"/><rect x="312.5" y="72" width="15" height="34" rx="3" fill="#3a424c" opacity="0.55" transform="rotate(255 320 320)"/><rect x="312.5" y="72" width="15" height="34" rx="3" fill="#3a424c" opacity="0.55" transform="rotate(262.5 320 320)"/><rect x="312.5" y="72" width="15" height="34" rx="3" fill="#3a424c" opacity="0.55" transform="rotate(270 320 320)"/><rect x="312.5" y="72" width="15" height="34" rx="3" fill="#3a424c" opacity="0.55" transform="rotate(277.5 320 320)"/><rect x="312.5" y="72" width="15" height="34" rx="3" fill="#3a424c" opacity="0.55" transform="rotate(285 320 320)"/><rect x="312.5" y="72" width="15" height="34" rx="3" fill="#3a424c" opacity="0.55" transform="rotate(292.5 320 320)"/><rect x="312.5" y="72" width="15" height="34" rx="3" fill="#3a424c" opacity="0.55" transform="rotate(300 320 320)"/><rect x="312.5" y="72" width="15" height="34" rx="3" fill="#3a424c" opacity="0.55" transform="rotate(307.5 320 320)"/><rect x="312.5" y="72" width="15" height="34" rx="3" fill="#3a424c" opacity="0.55" transform="rotate(315 320 320)"/><rect x="312.5" y="72" width="15" height="34" rx="3" fill="#3a424c" opacity="0.55" transform="rotate(322.5 320 320)"/><rect x="312.5" y="72" width="15" height="34" rx="3" fill="#3a424c" opacity="0.55" transform="rotate(330 320 320)"/><rect x="312.5" y="72" width="15" height="34" rx="3" fill="#3a424c" opacity="0.55" transform="rotate(337.5 320 320)"/><rect x="312.5" y="72" width="15" height="34" rx="3" fill="#3a424c" opacity="0.55" transform="rotate(345 320 320)"/><rect x="312.5" y="72" width="15" height="34" rx="3" fill="#3a424c" opacity="0.55" transform="rotate(352.5 320 320)"/>
    <rect x="315.5" y="74" width="9" height="12" rx="2" fill="#0b0e12" opacity="0.7" transform="rotate(0 320 320)"/><rect x="315.5" y="74" width="9" height="12" rx="2" fill="#0b0e12" opacity="0.7" transform="rotate(7.5 320 320)"/><rect x="315.5" y="74" width="9" height="12" rx="2" fill="#0b0e12" opacity="0.7" transform="rotate(15 320 320)"/><rect x="315.5" y="74" width="9" height="12" rx="2" fill="#0b0e12" opacity="0.7" transform="rotate(22.5 320 320)"/><rect x="315.5" y="74" width="9" height="12" rx="2" fill="#0b0e12" opacity="0.7" transform="rotate(30 320 320)"/><rect x="315.5" y="74" width="9" height="12" rx="2" fill="#0b0e12" opacity="0.7" transform="rotate(37.5 320 320)"/><rect x="315.5" y="74" width="9" height="12" rx="2" fill="#0b0e12" opacity="0.7" transform="rotate(45 320 320)"/><rect x="315.5" y="74" width="9" height="12" rx="2" fill="#0b0e12" opacity="0.7" transform="rotate(52.5 320 320)"/><rect x="315.5" y="74" width="9" height="12" rx="2" fill="#0b0e12" opacity="0.7" transform="rotate(60 320 320)"/><rect x="315.5" y="74" width="9" height="12" rx="2" fill="#0b0e12" opacity="0.7" transform="rotate(67.5 320 320)"/><rect x="315.5" y="74" width="9" height="12" rx="2" fill="#0b0e12" opacity="0.7" transform="rotate(75 320 320)"/><rect x="315.5" y="74" width="9" height="12" rx="2" fill="#0b0e12" opacity="0.7" transform="rotate(82.5 320 320)"/><rect x="315.5" y="74" width="9" height="12" rx="2" fill="#0b0e12" opacity="0.7" transform="rotate(90 320 320)"/><rect x="315.5" y="74" width="9" height="12" rx="2" fill="#0b0e12" opacity="0.7" transform="rotate(97.5 320 320)"/><rect x="315.5" y="74" width="9" height="12" rx="2" fill="#0b0e12" opacity="0.7" transform="rotate(105 320 320)"/><rect x="315.5" y="74" width="9" height="12" rx="2" fill="#0b0e12" opacity="0.7" transform="rotate(112.5 320 320)"/><rect x="315.5" y="74" width="9" height="12" rx="2" fill="#0b0e12" opacity="0.7" transform="rotate(120 320 320)"/><rect x="315.5" y="74" width="9" height="12" rx="2" fill="#0b0e12" opacity="0.7" transform="rotate(127.5 320 320)"/><rect x="315.5" y="74" width="9" height="12" rx="2" fill="#0b0e12" opacity="0.7" transform="rotate(135 320 320)"/><rect x="315.5" y="74" width="9" height="12" rx="2" fill="#0b0e12" opacity="0.7" transform="rotate(142.5 320 320)"/><rect x="315.5" y="74" width="9" height="12" rx="2" fill="#0b0e12" opacity="0.7" transform="rotate(150 320 320)"/><rect x="315.5" y="74" width="9" height="12" rx="2" fill="#0b0e12" opacity="0.7" transform="rotate(157.5 320 320)"/><rect x="315.5" y="74" width="9" height="12" rx="2" fill="#0b0e12" opacity="0.7" transform="rotate(165 320 320)"/><rect x="315.5" y="74" width="9" height="12" rx="2" fill="#0b0e12" opacity="0.7" transform="rotate(172.5 320 320)"/><rect x="315.5" y="74" width="9" height="12" rx="2" fill="#0b0e12" opacity="0.7" transform="rotate(180 320 320)"/><rect x="315.5" y="74" width="9" height="12" rx="2" fill="#0b0e12" opacity="0.7" transform="rotate(187.5 320 320)"/><rect x="315.5" y="74" width="9" height="12" rx="2" fill="#0b0e12" opacity="0.7" transform="rotate(195 320 320)"/><rect x="315.5" y="74" width="9" height="12" rx="2" fill="#0b0e12" opacity="0.7" transform="rotate(202.5 320 320)"/><rect x="315.5" y="74" width="9" height="12" rx="2" fill="#0b0e12" opacity="0.7" transform="rotate(210 320 320)"/><rect x="315.5" y="74" width="9" height="12" rx="2" fill="#0b0e12" opacity="0.7" transform="rotate(217.5 320 320)"/><rect x="315.5" y="74" width="9" height="12" rx="2" fill="#0b0e12" opacity="0.7" transform="rotate(225 320 320)"/><rect x="315.5" y="74" width="9" height="12" rx="2" fill="#0b0e12" opacity="0.7" transform="rotate(232.5 320 320)"/><rect x="315.5" y="74" width="9" height="12" rx="2" fill="#0b0e12" opacity="0.7" transform="rotate(240 320 320)"/><rect x="315.5" y="74" width="9" height="12" rx="2" fill="#0b0e12" opacity="0.7" transform="rotate(247.5 320 320)"/><rect x="315.5" y="74" width="9" height="12" rx="2" fill="#0b0e12" opacity="0.7" transform="rotate(255 320 320)"/><rect x="315.5" y="74" width="9" height="12" rx="2" fill="#0b0e12" opacity="0.7" transform="rotate(262.5 320 320)"/><rect x="315.5" y="74" width="9" height="12" rx="2" fill="#0b0e12" opacity="0.7" transform="rotate(270 320 320)"/><rect x="315.5" y="74" width="9" height="12" rx="2" fill="#0b0e12" opacity="0.7" transform="rotate(277.5 320 320)"/><rect x="315.5" y="74" width="9" height="12" rx="2" fill="#0b0e12" opacity="0.7" transform="rotate(285 320 320)"/><rect x="315.5" y="74" width="9" height="12" rx="2" fill="#0b0e12" opacity="0.7" transform="rotate(292.5 320 320)"/><rect x="315.5" y="74" width="9" height="12" rx="2" fill="#0b0e12" opacity="0.7" transform="rotate(300 320 320)"/><rect x="315.5" y="74" width="9" height="12" rx="2" fill="#0b0e12" opacity="0.7" transform="rotate(307.5 320 320)"/><rect x="315.5" y="74" width="9" height="12" rx="2" fill="#0b0e12" opacity="0.7" transform="rotate(315 320 320)"/><rect x="315.5" y="74" width="9" height="12" rx="2" fill="#0b0e12" opacity="0.7" transform="rotate(322.5 320 320)"/><rect x="315.5" y="74" width="9" height="12" rx="2" fill="#0b0e12" opacity="0.7" transform="rotate(330 320 320)"/><rect x="315.5" y="74" width="9" height="12" rx="2" fill="#0b0e12" opacity="0.7" transform="rotate(337.5 320 320)"/><rect x="315.5" y="74" width="9" height="12" rx="2" fill="#0b0e12" opacity="0.7" transform="rotate(345 320 320)"/><rect x="315.5" y="74" width="9" height="12" rx="2" fill="#0b0e12" opacity="0.7" transform="rotate(352.5 320 320)"/>
    <circle cx="320" cy="320" r="214" fill="none" stroke="#05070a" stroke-width="6" opacity="0.8"/>
    <circle cx="320" cy="320" r="238" fill="none" stroke="#05070a" stroke-width="3" opacity="0.6"/>

    <!-- sidewall matni (brend + o'lcham) -->
    <path id="ta_NKNOAT2656517" d="M 151.91 245.16 A 184 184 0 0 1 488.09 245.16" fill="none"/>
    <path id="ba_NKNOAT2656517" d="M 181.31 428.36 A 176 176 0 0 0 458.69 428.36" fill="none"/>
    <text font-family="Arial, Helvetica, sans-serif" font-size="23" font-weight="700" letter-spacing="3" fill="#0a0d11" opacity="0.6">
      <textPath href="#ta_NKNOAT2656517" xlink:href="#ta_NKNOAT2656517" startOffset="50%" text-anchor="middle" dy="1.5">NOKIAN OUTPOST AT</textPath>
    </text>
    <text font-family="Arial, Helvetica, sans-serif" font-size="23" font-weight="700" letter-spacing="3" fill="#eef2f6">
      <textPath href="#ta_NKNOAT2656517" xlink:href="#ta_NKNOAT2656517" startOffset="50%" text-anchor="middle">NOKIAN OUTPOST AT</textPath>
    </text>
    <text font-family="Arial, Helvetica, sans-serif" font-size="20" font-weight="600" letter-spacing="2" fill="#c7d0d9">
      <textPath href="#ba_NKNOAT2656517" xlink:href="#ba_NKNOAT2656517" startOffset="50%" text-anchor="middle">265/65 R17  ·  112T</textPath>
    </text>

    <!-- disk (alloy) -->
    <circle cx="320" cy="320" r="152" fill="#05070a"/>
    <circle cx="320" cy="320" r="150" fill="url(#alloy)"/>
    <circle cx="320" cy="320" r="150" fill="none" stroke="#5a6570" stroke-width="2"/>
    <!-- pockets (spitsalar orasi) -->
    <rect x="303" y="176" width="34" height="78" rx="16" fill="#161b21" transform="rotate(30 320 320)"/><rect x="303" y="176" width="34" height="78" rx="16" fill="#161b21" transform="rotate(102 320 320)"/><rect x="303" y="176" width="34" height="78" rx="16" fill="#161b21" transform="rotate(174 320 320)"/><rect x="303" y="176" width="34" height="78" rx="16" fill="#161b21" transform="rotate(246 320 320)"/><rect x="303" y="176" width="34" height="78" rx="16" fill="#161b21" transform="rotate(318 320 320)"/>
    <rect x="303" y="176" width="34" height="78" rx="16" fill="none" stroke="#ffffff" stroke-width="1" opacity="0.12" transform="rotate(30 320 320)"/><rect x="303" y="176" width="34" height="78" rx="16" fill="none" stroke="#ffffff" stroke-width="1" opacity="0.12" transform="rotate(102 320 320)"/><rect x="303" y="176" width="34" height="78" rx="16" fill="none" stroke="#ffffff" stroke-width="1" opacity="0.12" transform="rotate(174 320 320)"/><rect x="303" y="176" width="34" height="78" rx="16" fill="none" stroke="#ffffff" stroke-width="1" opacity="0.12" transform="rotate(246 320 320)"/><rect x="303" y="176" width="34" height="78" rx="16" fill="none" stroke="#ffffff" stroke-width="1" opacity="0.12" transform="rotate(318 320 320)"/>
    <!-- stupitsa -->
    <circle cx="320" cy="320" r="66" fill="url(#hub)" stroke="#5a6570" stroke-width="2"/>
    <circle cx="347.04" cy="282.79" r="6.5" fill="#2b333c" stroke="#7d8894" stroke-width="1.2"/><circle cx="345.54" cy="281.29" r="2" fill="#aeb8c2"/><circle cx="363.75" cy="334.21" r="6.5" fill="#2b333c" stroke="#7d8894" stroke-width="1.2"/><circle cx="362.25" cy="332.71" r="2" fill="#aeb8c2"/><circle cx="320" cy="366" r="6.5" fill="#2b333c" stroke="#7d8894" stroke-width="1.2"/><circle cx="318.5" cy="364.5" r="2" fill="#aeb8c2"/><circle cx="276.25" cy="334.21" r="6.5" fill="#2b333c" stroke="#7d8894" stroke-width="1.2"/><circle cx="274.75" cy="332.71" r="2" fill="#aeb8c2"/><circle cx="292.96" cy="282.79" r="6.5" fill="#2b333c" stroke="#7d8894" stroke-width="1.2"/><circle cx="291.46" cy="281.29" r="2" fill="#aeb8c2"/>
    <!-- markaziy qopqoq (brend belgisi) -->
    <circle cx="320" cy="320" r="34" fill="url(#cap)" stroke="#ffffff" stroke-opacity="0.35" stroke-width="2"/>
    <text x="320" y="320" font-family="Arial, Helvetica, sans-serif" font-size="34" font-weight="800" fill="#ffffff" text-anchor="middle" dominant-baseline="central">N</text>

    <!-- yaltiroq (gloss) -->
    <ellipse cx="238" cy="212" rx="120" ry="70" fill="#ffffff" opacity="0.10" filter="url(#gloss)"/>
  </g>

  <!-- mavsum badge -->
  <g transform="translate(0 0)">
    <rect x="220" y="30" width="200" height="40" rx="20" fill="#10b981"/>
    <rect x="220" y="30" width="200" height="40" rx="20" fill="#ffffff" opacity="0.10"/>
    <g transform="translate(246 50)"><g><path d="M -9 6 C -9 -6 3 -10 10 -9 C 11 -2 7 9 -6 9 C -8 9 -9 8 -9 6 Z" fill="#fff"/><path d="M -6 6 C -2 1 4 -3 8 -6" stroke="#10b981" stroke-width="1.6" fill="none" stroke-linecap="round"/></g></g>
    <text x="268" y="50" font-family="Arial, Helvetica, sans-serif" font-size="17" font-weight="700" letter-spacing="1" fill="#ffffff" dominant-baseline="central">HAMMA MAVSUM</text>
  </g>
</svg>